<?xml version="1.0" encoding="UTF-8"?>
<svg id="Layer_2" data-name="Layer 2" xmlns="http://www.w3.org/2000/svg" viewBox="0 0 814.45 528.22">
  <defs>
    <style>
      .cls-1 {
        fill: #fff;
      }

      .cls-2 {
        font-family: Orbitron-Regular, Orbitron;
        font-size: 36px;
      }

      .cls-3 {
        letter-spacing: -.04em;
      }

      .cls-4 {
        letter-spacing: -.02em;
      }

      .cls-5 {
        letter-spacing: 0em;
      }

      .cls-6 {
        fill: #7c49b2;
      }

      .cls-7 {
        fill: #722600;
      }

      .cls-8 {
        fill: #ed6b24;
      }

      .cls-9 {
        fill: #000b30;
        opacity: .08;
      }

      .cls-10 {
        fill: #0b0b0c;
      }

      .cls-11 {
        fill: #231f20;
      }

      .cls-12 {
        letter-spacing: 0em;
      }
    </style>
  </defs>
  <g id="Layer_1-2" data-name="Layer 1">
    <g>
      <g>
        <path class="cls-8" d="m797.77,1.08H16.67C8.1,1.08,1.08,8.1,1.08,16.67v485.8c0,8.58,7.02,15.59,15.59,15.59h132.48l-2.56,9.07h521.27l-2.56-9.07h132.48c8.58,0,15.59-7.02,15.59-15.59V16.67c0-8.58-7.02-15.59-15.59-15.59ZM227.93,500.71c0,4.6-3.77,8.37-8.37,8.37h-8.73c-4.6,0-8.37-3.77-8.37-8.37v-8.73c0-4.6,3.77-8.37,8.37-8.37h8.73c4.6,0,8.37,3.77,8.37,8.37v8.73Zm76.99-12.74c0,4.61-3.77,8.37-8.37,8.37h-8.73c-4.61,0-8.37-3.77-8.37-8.37v-8.73c0-4.6,3.77-8.37,8.37-8.37h8.73c4.6,0,8.37,3.77,8.37,8.37v8.73Zm242.43,0c0,4.61-3.77,8.37-8.37,8.37h-8.73c-4.6,0-8.37-3.77-8.37-8.37v-8.73c0-4.6,3.77-8.37,8.37-8.37h8.73c4.6,0,8.37,3.77,8.37,8.37v8.73Zm76.99,12.74c0,4.6-3.77,8.37-8.37,8.37h-8.73c-4.6,0-8.37-3.77-8.37-8.37v-8.73c0-4.6,3.77-8.37,8.37-8.37h8.73c4.6,0,8.37,3.77,8.37,8.37v8.73Zm116.55-176.89c0,8.39-6.87,15.26-15.26,15.26H88.81c-8.39,0-15.26-6.87-15.26-15.26V54.98c0-8.39,6.87-15.26,15.26-15.26h636.83c8.39,0,15.26,6.87,15.26,15.26v268.85Z"/>
        <path class="cls-11" d="m669.29,528.22H145.16l2.56-9.07H16.67c-9.19,0-16.67-7.48-16.67-16.67V16.67C0,7.48,7.48,0,16.67,0h781.1c9.19,0,16.67,7.48,16.67,16.67v485.8c0,9.19-7.48,16.67-16.67,16.67h-131.05l2.56,9.07Zm-521.27-2.16h518.41l-2.56-9.07h133.91c8,0,14.51-6.51,14.51-14.51V16.67c0-8-6.51-14.51-14.51-14.51H16.67c-8,0-14.51,6.51-14.51,14.51v485.8c0,8,6.51,14.51,14.51,14.51h133.91l-2.56,9.07Zm467.96-15.89h-8.73c-5.21,0-9.45-4.24-9.45-9.45v-8.73c0-5.21,4.24-9.45,9.45-9.45h8.73c5.21,0,9.45,4.24,9.45,9.45v8.73c0,5.21-4.24,9.45-9.45,9.45Zm-8.73-25.47c-4.02,0-7.29,3.27-7.29,7.29v8.73c0,4.02,3.27,7.29,7.29,7.29h8.73c4.02,0,7.29-3.27,7.29-7.29v-8.73c0-4.02-3.27-7.29-7.29-7.29h-8.73Zm-387.69,25.47h-8.73c-5.21,0-9.45-4.24-9.45-9.45v-8.73c0-5.21,4.24-9.45,9.45-9.45h8.73c5.21,0,9.45,4.24,9.45,9.45v8.73c0,5.21-4.24,9.45-9.45,9.45Zm-8.73-25.47c-4.02,0-7.29,3.27-7.29,7.29v8.73c0,4.02,3.27,7.29,7.29,7.29h8.73c4.02,0,7.29-3.27,7.29-7.29v-8.73c0-4.02-3.27-7.29-7.29-7.29h-8.73Zm328.15,12.74h-8.73c-5.21,0-9.45-4.24-9.45-9.46v-8.73c0-5.21,4.24-9.46,9.45-9.46h8.73c5.21,0,9.45,4.24,9.45,9.46v8.73c0,5.21-4.24,9.46-9.45,9.46Zm-8.73-25.47c-4.02,0-7.29,3.27-7.29,7.29v8.73c0,4.02,3.27,7.29,7.29,7.29h8.73c4.02,0,7.29-3.27,7.29-7.29v-8.73c0-4.02-3.27-7.29-7.29-7.29h-8.73Zm-233.7,25.47h-8.73c-5.21,0-9.45-4.24-9.45-9.46v-8.73c0-5.21,4.24-9.46,9.45-9.46h8.73c5.21,0,9.45,4.24,9.45,9.46v8.73c0,5.21-4.24,9.46-9.45,9.46Zm-8.73-25.47c-4.02,0-7.29,3.27-7.29,7.29v8.73c0,4.02,3.27,7.29,7.29,7.29h8.73c4.02,0,7.29-3.27,7.29-7.29v-8.73c0-4.02-3.27-7.29-7.29-7.29h-8.73Zm437.81-131.8H88.81c-9.01,0-16.34-7.33-16.34-16.34V54.98c0-9.01,7.33-16.34,16.34-16.34h636.83c9.01,0,16.34,7.33,16.34,16.34v268.84c0,9.01-7.33,16.34-16.34,16.34ZM88.81,40.8c-7.82,0-14.18,6.36-14.18,14.18v268.84c0,7.82,6.36,14.18,14.18,14.18h636.83c7.82,0,14.18-6.36,14.18-14.18V54.98c0-7.82-6.36-14.18-14.18-14.18H88.81Z"/>
      </g>
      <rect class="cls-9" x="72.47" y="101.55" width="669.51" height="240.71"/>
      <rect class="cls-6" x="73.55" y="348.31" width="667.34" height="57.19" rx="12.67" ry="12.67"/>
      <path class="cls-1" d="m87.42,38.64h639.6c8.25,0,14.95,6.7,14.95,14.95v49.71c0,8.25-6.7,14.95-14.95,14.95H87.42c-8.25,0-14.95-6.7-14.95-14.95v-49.71c0-8.25,6.7-14.95,14.95-14.95Z"/>
      <g>
        <g>
          <g>
            <path class="cls-7" d="m42.72,30.98c0,7.29-5.91,13.19-13.19,13.19s-13.19-5.91-13.19-13.19,5.91-13.19,13.19-13.19,13.19,5.91,13.19,13.19Z"/>
            <path class="cls-7" d="m29.53,45.26c-7.87,0-14.27-6.4-14.27-14.27s6.4-14.27,14.27-14.27,14.27,6.4,14.27,14.27-6.4,14.27-14.27,14.27Zm0-26.38c-6.68,0-12.11,5.43-12.11,12.11s5.43,12.11,12.11,12.11,12.11-5.43,12.11-12.11-5.43-12.11-12.11-12.11Z"/>
          </g>
          <g>
            <path class="cls-7" d="m42.72,492.35c0,7.29-5.91,13.19-13.19,13.19s-13.19-5.91-13.19-13.19,5.91-13.19,13.19-13.19,13.19,5.91,13.19,13.19Z"/>
            <path class="cls-7" d="m29.53,506.62c-7.87,0-14.27-6.4-14.27-14.27s6.4-14.27,14.27-14.27,14.27,6.4,14.27,14.27-6.4,14.27-14.27,14.27Zm0-26.38c-6.68,0-12.11,5.43-12.11,12.11s5.43,12.11,12.11,12.11,12.11-5.43,12.11-12.11-5.43-12.11-12.11-12.11Z"/>
          </g>
          <g>
            <path class="cls-7" d="m798.11,30.98c0,7.29-5.91,13.19-13.19,13.19s-13.19-5.91-13.19-13.19,5.91-13.19,13.19-13.19,13.19,5.91,13.19,13.19Z"/>
            <path class="cls-7" d="m784.92,45.26c-7.87,0-14.27-6.4-14.27-14.27s6.4-14.27,14.27-14.27,14.27,6.4,14.27,14.27-6.4,14.27-14.27,14.27Zm0-26.38c-6.68,0-12.11,5.43-12.11,12.11s5.43,12.11,12.11,12.11,12.11-5.43,12.11-12.11-5.43-12.11-12.11-12.11Z"/>
          </g>
          <g>
            <path class="cls-7" d="m798.11,492.35c0,7.29-5.91,13.19-13.19,13.19s-13.19-5.91-13.19-13.19,5.91-13.19,13.19-13.19,13.19,5.91,13.19,13.19Z"/>
            <path class="cls-7" d="m784.92,506.62c-7.87,0-14.27-6.4-14.27-14.27s6.4-14.27,14.27-14.27,14.27,6.4,14.27,14.27-6.4,14.27-14.27,14.27Zm0-26.38c-6.68,0-12.11,5.43-12.11,12.11s5.43,12.11,12.11,12.11,12.11-5.43,12.11-12.11-5.43-12.11-12.11-12.11Z"/>
          </g>
        </g>
        <g>
          <path class="cls-7" d="m420.42,443.77c0,7.29-5.91,13.19-13.19,13.19s-13.19-5.91-13.19-13.19,5.91-13.19,13.19-13.19,13.19,5.91,13.19,13.19Z"/>
          <path class="cls-7" d="m407.22,458.05c-7.87,0-14.27-6.4-14.27-14.28s6.4-14.27,14.27-14.27,14.27,6.4,14.27,14.27-6.4,14.28-14.27,14.28Zm0-26.39c-6.68,0-12.11,5.43-12.11,12.11s5.43,12.11,12.11,12.11,12.11-5.43,12.11-12.11-5.43-12.11-12.11-12.11Z"/>
        </g>
      </g>
      <polygon class="cls-10" points="667.23 527.31 636.27 417.64 178.18 417.64 147.21 527.31 145.96 526.96 177.2 416.34 637.25 416.34 637.39 416.81 668.49 526.96 667.23 527.31"/>
      <path d="m721.24,100.67H93.21c-.97,0-1.75-.28-1.75-.63s.79-.63,1.75-.63h628.03c.97,0,1.75.28,1.75.63s-.79.63-1.75.63Z"/>
      <text class="cls-2" transform="translate(255.86 83.74)"><tspan x="0" y="0">C</tspan><tspan class="cls-12" x="29.59" y="0">h</tspan><tspan class="cls-4" x="53.82" y="0">i</tspan><tspan x="60.41" y="0">pt</tspan><tspan class="cls-12" x="99.07" y="0">u</tspan><tspan x="124.27" y="0">ne m</tspan><tspan class="cls-3" x="219.24" y="0">i</tspan><tspan class="cls-5" x="225.25" y="0">x #1</tspan></text>
    </g>
  </g>
</svg>