<?xml version="1.0" encoding="UTF-8"?>
<svg id="Layer_2" data-name="Layer 2" xmlns="http://www.w3.org/2000/svg" viewBox="0 0 1200.38 777.19">
  <defs>
    <style>
      .cls-1, .cls-2, .cls-3, .cls-4 {
        fill: #fff;
      }

      .cls-5 {
        letter-spacing: 0em;
      }

      .cls-2, .cls-3 {
        font-size: 36px;
      }

      .cls-2, .cls-6, .cls-4 {
        font-family: Orbitron-Bold, Orbitron;
        font-weight: 700;
      }

      .cls-3 {
        font-family: Orbitron-Regular, Orbitron;
      }

      .cls-7 {
        letter-spacing: 0em;
      }

      .cls-8 {
        letter-spacing: -.02em;
      }

      .cls-9 {
        fill: #b2b2b2;
        opacity: .25;
        stroke: #ef4136;
        stroke-miterlimit: 10;
        stroke-width: 5px;
      }

      .cls-10 {
        fill: #7c49b2;
      }

      .cls-11 {
        letter-spacing: 0em;
      }

      .cls-12 {
        fill: #8b49f2;
      }

      .cls-13 {
        fill: #722600;
      }

      .cls-14 {
        letter-spacing: 0em;
      }

      .cls-15 {
        fill: #ed6b24;
      }

      .cls-6, .cls-4 {
        font-size: 53.06px;
      }

      .cls-16 {
        fill: #0b0b0c;
      }

      .cls-17 {
        letter-spacing: -.06em;
      }

      .cls-18 {
        letter-spacing: .02em;
      }
    </style>
  </defs>
  <g id="Layer_1-2" data-name="Layer 1">
    <g>
      <g>
        <path class="cls-15" d="m1175.81,1.59H24.58C11.94,1.59,1.6,11.93,1.6,24.57v716c0,12.64,10.34,22.98,22.98,22.98l87.6-1.6-3.78,13.37,344.99,1.6h638.59l-3.78-13.37h87.61c12.64,0,22.98-10.34,22.98-22.98V24.57c0-12.64-10.34-22.98-22.98-22.98ZM335.94,737.98c0,6.79-5.55,12.34-12.34,12.34h-12.86c-6.79,0-12.34-5.55-12.34-12.34v-12.86c0-6.79,5.55-12.34,12.34-12.34h12.86c6.79,0,12.34,5.55,12.34,12.34v12.86Zm113.47-18.77c0,6.79-5.55,12.34-12.34,12.34h-12.86c-6.79,0-12.34-5.55-12.34-12.34v-12.86c0-6.79,5.55-12.34,12.34-12.34h12.86c6.79,0,12.34,5.55,12.34,12.34v12.86Zm357.31,0c0,6.79-5.55,12.34-12.34,12.34h-12.86c-6.79,0-12.34-5.55-12.34-12.34v-12.86c0-6.79,5.55-12.34,12.34-12.34h12.86c6.79,0,12.34,5.55,12.34,12.34v12.86Zm113.47,18.77c0,6.79-5.55,12.34-12.34,12.34h-12.86c-6.79,0-12.34-5.55-12.34-12.34v-12.86c0-6.79,5.55-12.34,12.34-12.34h12.86c6.79,0,12.34,5.55,12.34,12.34v12.86Zm171.77-369.91c0,9.14-10.12,16.62-22.49,16.62H130.89c-12.37,0-22.49-7.48-22.49-16.62V75.16c0-9.14,10.12-16.63,22.49-16.63h938.6c12.37,0,22.49,7.48,22.49,16.63v292.91Z"/>
        <path class="cls-15" d="m994.72,769.4H206.55l11.17-4.25H24.57c-13.55,0-24.57-11.02-24.57-24.57V24.57C0,11.02,11.02,0,24.57,0h1151.23c13.55,0,24.57,11.02,24.57,24.57v716c0,13.55-11.02,24.57-24.57,24.57h-193.15l12.06,4.25Zm-776.57,5.93h764.07l-3.78-13.37h197.36c11.79,0,21.38-9.59,21.38-21.38V24.57c0-11.79-9.59-21.38-21.38-21.38H24.57C12.78,3.19,3.19,12.78,3.19,24.57v716c0,11.79,9.59,21.38,21.39,21.38h197.36l-3.78,13.37Zm689.71-23.41h-12.86c-7.68,0-13.93-6.25-13.93-13.93v-12.86c0-7.68,6.25-13.93,13.93-13.93h12.86c7.68,0,13.93,6.25,13.93,13.93v12.86c0,7.68-6.25,13.93-13.93,13.93Zm-12.86-37.54c-5.92,0-10.74,4.82-10.74,10.74v12.86c0,5.92,4.82,10.74,10.74,10.74h12.86c5.92,0,10.74-4.82,10.74-10.74v-12.86c0-5.92-4.82-10.74-10.74-10.74h-12.86Zm-571.39,37.54h-12.86c-7.68,0-13.93-6.25-13.93-13.93v-12.86c0-7.68,6.25-13.93,13.93-13.93h12.86c7.68,0,13.93,6.25,13.93,13.93v12.86c0,7.68-6.25,13.93-13.93,13.93Zm-12.86-37.54c-5.92,0-10.75,4.82-10.75,10.74v12.86c0,5.92,4.82,10.74,10.75,10.74h12.86c5.92,0,10.75-4.82,10.75-10.74v-12.86c0-5.92-4.82-10.74-10.75-10.74h-12.86Zm483.65,18.77h-12.86c-7.68,0-13.93-6.25-13.93-13.94v-12.86c0-7.68,6.25-13.94,13.93-13.94h12.86c7.68,0,13.93,6.25,13.93,13.94v12.86c0,7.68-6.25,13.94-13.93,13.94Zm-12.86-37.54c-5.92,0-10.74,4.82-10.74,10.75v12.86c0,5.92,4.82,10.75,10.74,10.75h12.86c5.92,0,10.74-4.82,10.74-10.75v-12.86c0-5.92-4.82-10.75-10.74-10.75h-12.86Zm-344.45,37.54h-12.86c-7.68,0-13.93-6.25-13.93-13.94v-12.86c0-7.68,6.25-13.94,13.93-13.94h12.86c7.68,0,13.93,6.25,13.93,13.94v12.86c0,7.68-6.25,13.94-13.93,13.94Zm-12.86-37.54c-5.92,0-10.74,4.82-10.74,10.75v12.86c0,5.92,4.82,10.75,10.74,10.75h12.86c5.92,0,10.74-4.82,10.74-10.75v-12.86c0-5.92-4.82-10.75-10.74-10.75h-12.86Zm645.27-264.75H130.89c-13.28,0-24.08-9.09-24.08-20.26V77.21c0-11.17,10.8-20.26,24.08-20.26h938.6c13.28,0,24.08,9.09,24.08,20.26v333.38c0,11.17-10.8,20.26-24.08,20.26ZM179.94,60.13c-10.32,0-18.71,7.93-18.71,17.68v335.35c0,9.75,8.39,17.68,18.71,17.68h840.5c10.32,0,18.71-7.93,18.71-17.68V77.82c0-9.75-8.39-17.68-18.71-17.68H179.94Z"/>
      </g>
      <rect class="cls-9" x="161.23" y="149.66" width="877.92" height="235.04"/>
      <rect class="cls-10" x="161.23" y="513.37" width="879.45" height="84.29" rx="17.66" ry="17.66"/>
      <rect class="cls-1" x="161.23" y="56.94" width="879.45" height="117.35" rx="20.8" ry="20.8"/>
      <g>
        <g>
          <g>
            <path class="cls-13" d="m62.96,45.67c0,10.74-8.71,19.44-19.44,19.44s-19.44-8.71-19.44-19.44,8.71-19.44,19.44-19.44,19.44,8.71,19.44,19.44Z"/>
            <path class="cls-13" d="m43.52,66.7c-11.6,0-21.04-9.44-21.04-21.04s9.44-21.04,21.04-21.04,21.04,9.44,21.04,21.04-9.44,21.04-21.04,21.04Zm0-38.89c-9.84,0-17.85,8.01-17.85,17.85s8.01,17.85,17.85,17.85,17.85-8.01,17.85-17.85-8.01-17.85-17.85-17.85Z"/>
          </g>
          <g>
            <path class="cls-13" d="m62.96,725.65c0,10.74-8.71,19.44-19.44,19.44s-19.44-8.71-19.44-19.44,8.71-19.44,19.44-19.44,19.44,8.71,19.44,19.44Z"/>
            <path class="cls-13" d="m43.52,746.69c-11.6,0-21.04-9.44-21.04-21.04s9.44-21.04,21.04-21.04,21.04,9.44,21.04,21.04-9.44,21.04-21.04,21.04Zm0-38.89c-9.84,0-17.85,8-17.85,17.85s8.01,17.85,17.85,17.85,17.85-8,17.85-17.85-8.01-17.85-17.85-17.85Z"/>
          </g>
          <g>
            <path class="cls-13" d="m1176.31,45.67c0,10.74-8.71,19.44-19.44,19.44s-19.44-8.71-19.44-19.44,8.7-19.44,19.44-19.44,19.44,8.71,19.44,19.44Z"/>
            <path class="cls-13" d="m1156.86,66.7c-11.6,0-21.04-9.44-21.04-21.04s9.44-21.04,21.04-21.04,21.04,9.44,21.04,21.04-9.44,21.04-21.04,21.04Zm0-38.89c-9.84,0-17.85,8.01-17.85,17.85s8.01,17.85,17.85,17.85,17.85-8.01,17.85-17.85-8.01-17.85-17.85-17.85Z"/>
          </g>
          <g>
            <path class="cls-13" d="m1176.31,725.65c0,10.74-8.71,19.44-19.44,19.44s-19.44-8.71-19.44-19.44,8.7-19.44,19.44-19.44,19.44,8.71,19.44,19.44Z"/>
            <path class="cls-13" d="m1156.86,746.69c-11.6,0-21.04-9.44-21.04-21.04s9.44-21.04,21.04-21.04,21.04,9.44,21.04,21.04-9.44,21.04-21.04,21.04Zm0-38.89c-9.84,0-17.85,8-17.85,17.85s8.01,17.85,17.85,17.85,17.85-8,17.85-17.85-8.01-17.85-17.85-17.85Z"/>
          </g>
        </g>
        <g>
          <path class="cls-13" d="m619.64,654.06c0,10.74-8.71,19.44-19.44,19.44s-19.44-8.71-19.44-19.44,8.71-19.44,19.44-19.44,19.44,8.71,19.44,19.44Z"/>
          <path class="cls-13" d="m600.19,675.1c-11.6,0-21.04-9.44-21.04-21.04s9.44-21.04,21.04-21.04,21.04,9.44,21.04,21.04-9.44,21.04-21.04,21.04Zm0-38.89c-9.84,0-17.85,8.01-17.85,17.85s8.01,17.85,17.85,17.85,17.85-8.01,17.85-17.85-8.01-17.85-17.85-17.85Z"/>
        </g>
      </g>
      <polygon class="cls-16" points="1089.62 777.19 1031.33 615.55 169.05 615.55 110.76 777.19 108.41 776.67 167.2 613.63 1033.19 613.63 1033.44 614.33 1091.98 776.67 1089.62 777.19"/>
      <g>
        <text class="cls-6" transform="translate(426.12 136.18)"><tspan x="0" y="0">CHIPTUNE MIXER</tspan></text>
        <rect class="cls-12" x="275.75" y="81.85" width="141.32" height="67.53"/>
        <text class="cls-4" transform="translate(283.35 135.18)"><tspan x="0" y="0">RXT</tspan></text>
      </g>
      <text class="cls-2" transform="translate(283.35 565.95)"><tspan x="0" y="0">N</tspan><tspan class="cls-17" x="29.95" y="0">o</tspan><tspan x="52.7" y="0">w p</tspan><tspan class="cls-5" x="125.75" y="0">l</tspan><tspan x="137.63" y="0">ay</tspan><tspan class="cls-18" x="187.27" y="0">i</tspan><tspan class="cls-11" x="196.09" y="0">n</tspan><tspan x="220.89" y="0">g:</tspan></text>
      <text class="cls-3" transform="translate(552.2 565.95)"><tspan x="0" y="0">M</tspan><tspan class="cls-7" x="33.41" y="0">a</tspan><tspan class="cls-14" x="58.21" y="0">rio B</tspan><tspan class="cls-7" x="148.79" y="0">r</tspan><tspan class="cls-8" x="167.04" y="0">o</tspan><tspan x="191.23" y="0">s. Theme</tspan></text>
    </g>
  </g>
</svg>