<?xml version="1.0" encoding="UTF-8"?>
<svg id="Layer_2" data-name="Layer 2" xmlns="http://www.w3.org/2000/svg" viewBox="0 0 1200.38 778.52">
  <defs>
    <style>
      .cls-1 {
        letter-spacing: -.04em;
      }

      .cls-2 {
        fill: #fff;
      }

      .cls-3 {
        font-family: Orbitron-Regular, Orbitron;
        font-size: 53.06px;
      }

      .cls-4 {
        fill: #7c49b2;
      }

      .cls-5 {
        fill: #722600;
      }

      .cls-6 {
        fill: #ed6b24;
      }

      .cls-7 {
        fill: #000b30;
        opacity: .08;
      }

      .cls-8 {
        letter-spacing: 0em;
      }

      .cls-9 {
        letter-spacing: 0em;
      }

      .cls-10 {
        fill: #0b0b0c;
      }

      .cls-11 {
        letter-spacing: -.03em;
      }
    </style>
  </defs>
  <g id="Layer_1-2" data-name="Layer 1">
    <g>
      <g>
        <path class="cls-6" d="m1175.81,1.59H24.58C11.94,1.59,1.6,11.93,1.6,24.57v716c0,12.64,10.34,22.98,22.98,22.98h195.25l-3.78,13.37h768.28l-3.78-13.37h195.25c12.64,0,22.98-10.34,22.98-22.98V24.57c0-12.64-10.34-22.98-22.98-22.98ZM335.94,737.98c0,6.79-5.55,12.34-12.34,12.34h-12.86c-6.79,0-12.34-5.55-12.34-12.34v-12.86c0-6.79,5.55-12.34,12.34-12.34h12.86c6.79,0,12.34,5.55,12.34,12.34v12.86Zm113.47-18.77c0,6.79-5.55,12.34-12.34,12.34h-12.86c-6.79,0-12.34-5.55-12.34-12.34v-12.86c0-6.79,5.55-12.34,12.34-12.34h12.86c6.79,0,12.34,5.55,12.34,12.34v12.86Zm357.31,0c0,6.79-5.55,12.34-12.34,12.34h-12.86c-6.79,0-12.34-5.55-12.34-12.34v-12.86c0-6.79,5.55-12.34,12.34-12.34h12.86c6.79,0,12.34,5.55,12.34,12.34v12.86Zm113.47,18.77c0,6.79-5.55,12.34-12.34,12.34h-12.86c-6.79,0-12.34-5.55-12.34-12.34v-12.86c0-6.79,5.55-12.34,12.34-12.34h12.86c6.79,0,12.34,5.55,12.34,12.34v12.86Zm171.77-260.71c0,12.37-10.12,22.49-22.49,22.49H130.89c-12.37,0-22.49-10.12-22.49-22.49V81.03c0-12.37,10.12-22.49,22.49-22.49h938.6c12.37,0,22.49,10.12,22.49,22.49v396.24Z"/>
        <path class="cls-6" d="m986.44,778.52H213.94l3.78-13.37H24.57c-13.55,0-24.57-11.02-24.57-24.57V24.57C0,11.02,11.02,0,24.57,0h1151.23c13.55,0,24.57,11.02,24.57,24.57v716c0,13.55-11.02,24.57-24.57,24.57h-193.15l3.78,13.37Zm-768.28-3.19h764.07l-3.78-13.37h197.36c11.79,0,21.38-9.59,21.38-21.38V24.57c0-11.79-9.59-21.38-21.38-21.38H24.57C12.78,3.19,3.19,12.78,3.19,24.57v716c0,11.79,9.59,21.38,21.39,21.38h197.36l-3.78,13.37Zm689.71-23.41h-12.86c-7.68,0-13.93-6.25-13.93-13.93v-12.86c0-7.68,6.25-13.93,13.93-13.93h12.86c7.68,0,13.93,6.25,13.93,13.93v12.86c0,7.68-6.25,13.93-13.93,13.93Zm-12.86-37.54c-5.92,0-10.74,4.82-10.74,10.74v12.86c0,5.92,4.82,10.74,10.74,10.74h12.86c5.92,0,10.74-4.82,10.74-10.74v-12.86c0-5.92-4.82-10.74-10.74-10.74h-12.86Zm-571.39,37.54h-12.86c-7.68,0-13.93-6.25-13.93-13.93v-12.86c0-7.68,6.25-13.93,13.93-13.93h12.86c7.68,0,13.93,6.25,13.93,13.93v12.86c0,7.68-6.25,13.93-13.93,13.93Zm-12.86-37.54c-5.92,0-10.75,4.82-10.75,10.74v12.86c0,5.92,4.82,10.74,10.75,10.74h12.86c5.92,0,10.75-4.82,10.75-10.74v-12.86c0-5.92-4.82-10.74-10.75-10.74h-12.86Zm483.65,18.77h-12.86c-7.68,0-13.93-6.25-13.93-13.94v-12.86c0-7.68,6.25-13.94,13.93-13.94h12.86c7.68,0,13.93,6.25,13.93,13.94v12.86c0,7.68-6.25,13.94-13.93,13.94Zm-12.86-37.54c-5.92,0-10.74,4.82-10.74,10.75v12.86c0,5.92,4.82,10.75,10.74,10.75h12.86c5.92,0,10.74-4.82,10.74-10.75v-12.86c0-5.92-4.82-10.75-10.74-10.75h-12.86Zm-344.45,37.54h-12.86c-7.68,0-13.93-6.25-13.93-13.94v-12.86c0-7.68,6.25-13.94,13.93-13.94h12.86c7.68,0,13.93,6.25,13.93,13.94v12.86c0,7.68-6.25,13.94-13.93,13.94Zm-12.86-37.54c-5.92,0-10.74,4.82-10.74,10.75v12.86c0,5.92,4.82,10.75,10.74,10.75h12.86c5.92,0,10.74-4.82,10.74-10.75v-12.86c0-5.92-4.82-10.75-10.74-10.75h-12.86Zm645.27-194.25H130.89c-13.28,0-24.08-10.81-24.08-24.08V81.03c0-13.28,10.8-24.08,24.08-24.08h938.6c13.28,0,24.08,10.81,24.08,24.08v396.24c0,13.28-10.8,24.08-24.08,24.08ZM179.94,60.13c-10.32,0-18.71,9.37-18.71,20.89v396.24c0,11.52,8.39,20.89,18.71,20.89h840.5c10.32,0,18.71-9.37,18.71-20.89V81.03c0-11.52-8.39-20.89-18.71-20.89H179.94Z"/>
      </g>
      <rect class="cls-7" x="161.23" y="149.66" width="877.92" height="350.12"/>
      <rect class="cls-4" x="161.23" y="513.37" width="879.45" height="84.29" rx="17.66" ry="17.66"/>
      <rect class="cls-2" x="161.23" y="56.94" width="879.45" height="117.35" rx="20.8" ry="20.8"/>
      <g>
        <g>
          <g>
            <path class="cls-5" d="m62.96,45.67c0,10.74-8.71,19.44-19.44,19.44s-19.44-8.71-19.44-19.44,8.71-19.44,19.44-19.44,19.44,8.71,19.44,19.44Z"/>
            <path class="cls-5" d="m43.52,66.7c-11.6,0-21.04-9.44-21.04-21.04s9.44-21.04,21.04-21.04,21.04,9.44,21.04,21.04-9.44,21.04-21.04,21.04Zm0-38.89c-9.84,0-17.85,8.01-17.85,17.85s8.01,17.85,17.85,17.85,17.85-8.01,17.85-17.85-8.01-17.85-17.85-17.85Z"/>
          </g>
          <g>
            <path class="cls-5" d="m62.96,725.65c0,10.74-8.71,19.44-19.44,19.44s-19.44-8.71-19.44-19.44,8.71-19.44,19.44-19.44,19.44,8.71,19.44,19.44Z"/>
            <path class="cls-5" d="m43.52,746.69c-11.6,0-21.04-9.44-21.04-21.04s9.44-21.04,21.04-21.04,21.04,9.44,21.04,21.04-9.44,21.04-21.04,21.04Zm0-38.89c-9.84,0-17.85,8-17.85,17.85s8.01,17.85,17.85,17.85,17.85-8,17.85-17.85-8.01-17.85-17.85-17.85Z"/>
          </g>
          <g>
            <path class="cls-5" d="m1176.31,45.67c0,10.74-8.71,19.44-19.44,19.44s-19.44-8.71-19.44-19.44,8.7-19.44,19.44-19.44,19.44,8.71,19.44,19.44Z"/>
            <path class="cls-5" d="m1156.86,66.7c-11.6,0-21.04-9.44-21.04-21.04s9.44-21.04,21.04-21.04,21.04,9.44,21.04,21.04-9.44,21.04-21.04,21.04Zm0-38.89c-9.84,0-17.85,8.01-17.85,17.85s8.01,17.85,17.85,17.85,17.85-8.01,17.85-17.85-8.01-17.85-17.85-17.85Z"/>
          </g>
          <g>
            <path class="cls-5" d="m1176.31,725.65c0,10.74-8.71,19.44-19.44,19.44s-19.44-8.71-19.44-19.44,8.7-19.44,19.44-19.44,19.44,8.71,19.44,19.44Z"/>
            <path class="cls-5" d="m1156.86,746.69c-11.6,0-21.04-9.44-21.04-21.04s9.44-21.04,21.04-21.04,21.04,9.44,21.04,21.04-9.44,21.04-21.04,21.04Zm0-38.89c-9.84,0-17.85,8-17.85,17.85s8.01,17.85,17.85,17.85,17.85-8,17.85-17.85-8.01-17.85-17.85-17.85Z"/>
          </g>
        </g>
        <g>
          <path class="cls-5" d="m619.64,654.06c0,10.74-8.71,19.44-19.44,19.44s-19.44-8.71-19.44-19.44,8.71-19.44,19.44-19.44,19.44,8.71,19.44,19.44Z"/>
          <path class="cls-5" d="m600.19,675.1c-11.6,0-21.04-9.44-21.04-21.04s9.44-21.04,21.04-21.04,21.04,9.44,21.04,21.04-9.44,21.04-21.04,21.04Zm0-38.89c-9.84,0-17.85,8.01-17.85,17.85s8.01,17.85,17.85,17.85,17.85-8.01,17.85-17.85-8.01-17.85-17.85-17.85Z"/>
        </g>
      </g>
      <polygon class="cls-10" points="983.41 777.19 937.77 615.55 262.61 615.55 216.97 777.19 215.13 776.67 261.16 613.63 939.22 613.63 939.42 614.33 985.26 776.67 983.41 777.19"/>
      <path d="m1000.14,148.37H197.31c-1.24,0-2.24-.41-2.24-.93s1-.93,2.24-.93h802.84c1.24,0,2.24.41,2.24.93s-1,.93-2.24.93Z"/>
      <text class="cls-3" transform="translate(377.11 123.42)"><tspan x="0" y="0">C</tspan><tspan class="cls-8" x="43.61" y="0">h</tspan><tspan class="cls-11" x="79.32" y="0">i</tspan><tspan class="cls-9" x="89.03" y="0">pt</tspan><tspan class="cls-8" x="146.02" y="0">u</tspan><tspan x="183.16" y="0">ne m</tspan><tspan class="cls-1" x="323.12" y="0">i</tspan><tspan x="331.99" y="0">x #1</tspan></text>
    </g>
  </g>
</svg>