<?xml version="1.0" encoding="UTF-8"?>
<svg id="Layer_1" data-name="Layer 1" xmlns="http://www.w3.org/2000/svg" viewBox="0 0 1683.94 197.81">
  <defs>
    <style>
      .cls-1 {
        fill: #fff;
      }

      .cls-2 {
        isolation: isolate;
      }

      .cls-3 {
        fill: #6e6b6a;
      }

      .cls-4 {
        fill: #7b7b7b;
      }
    </style>
  </defs>
  <g id="Group_8" data-name="Group 8">
    <g id="Group_2" data-name="Group 2">
      <rect id="Rectangle_2" data-name="Rectangle 2" class="cls-4" x="1304.54" width="379.4" height="184.6"/>
      <g class="cls-2">
        <path class="cls-1" d="m1369.52,138.45V54.04h35.87c9.02,0,15.57.76,19.66,2.27,4.09,1.52,7.36,4.21,9.82,8.09,2.46,3.88,3.69,8.31,3.69,13.3,0,6.33-1.86,11.56-5.58,15.69-3.72,4.13-9.29,6.73-16.7,7.8,3.68,2.15,6.73,4.51,9.12,7.08s5.63,7.14,9.7,13.7l10.31,16.47h-20.38l-12.32-18.37c-4.38-6.56-7.37-10.7-8.98-12.41s-3.32-2.88-5.12-3.51c-1.8-.63-4.66-.95-8.58-.95h-3.45v35.24h-17.04Zm17.04-48.71h12.61c8.17,0,13.28-.34,15.31-1.04,2.03-.69,3.63-1.88,4.78-3.57,1.15-1.69,1.73-3.8,1.73-6.33,0-2.84-.76-5.13-2.27-6.88-1.52-1.75-3.66-2.85-6.42-3.31-1.38-.19-5.53-.29-12.44-.29h-13.3v21.42Z"/>
        <path class="cls-1" d="m1446.04,138.45l28.85-44.04-26.14-40.36h19.92l16.93,27.12,16.58-27.12h19.75l-26.25,40.99,28.84,43.41h-20.55l-18.71-29.19-18.77,29.19h-20.44Z"/>
        <path class="cls-1" d="m1552.27,138.45v-70.13h-25.04v-14.28h67.07v14.28h-24.99v70.13h-17.04Z"/>
      </g>
    </g>
  </g>
  <g class="cls-2">
    <path class="cls-3" d="m73.47,109.27l19.4,6.15c-2.97,10.81-7.92,18.85-14.84,24.09-6.92,5.25-15.69,7.87-26.33,7.87-13.16,0-23.97-4.49-32.44-13.48-8.47-8.99-12.71-21.28-12.71-36.87,0-16.49,4.26-29.3,12.77-38.42,8.52-9.12,19.71-13.69,33.59-13.69,12.12,0,21.97,3.58,29.54,10.75,4.51,4.24,7.88,10.32,10.14,18.25l-19.8,4.73c-1.17-5.14-3.62-9.19-7.33-12.17-3.72-2.97-8.23-4.46-13.55-4.46-7.34,0-13.3,2.64-17.88,7.91-4.57,5.27-6.86,13.81-6.86,25.62,0,12.53,2.25,21.45,6.76,26.76,4.51,5.32,10.36,7.98,17.57,7.98,5.32,0,9.89-1.69,13.72-5.07,3.83-3.38,6.58-8.7,8.25-15.95Z"/>
    <path class="cls-3" d="m110.1,145.7V46.62h20.01v39h39.2v-39h20.01v99.08h-20.01v-43.32h-39.2v43.32h-20.01Z"/>
    <path class="cls-3" d="m209.39,145.7V46.62h20.01v99.08h-20.01Z"/>
    <path class="cls-3" d="m248.45,145.7V46.62h32.1c12.17,0,20.1.5,23.79,1.49,5.68,1.49,10.43,4.72,14.26,9.7,3.83,4.98,5.75,11.41,5.75,19.3,0,6.08-1.1,11.2-3.31,15.34-2.21,4.15-5.01,7.4-8.41,9.77-3.4,2.37-6.86,3.93-10.38,4.7-4.78.95-11.69,1.42-20.75,1.42h-13.04v37.38h-20.01Zm20.01-82.32v28.12h10.95c7.88,0,13.16-.52,15.82-1.55,2.66-1.04,4.74-2.66,6.25-4.87,1.51-2.21,2.26-4.78,2.26-7.71,0-3.6-1.06-6.58-3.18-8.92-2.12-2.34-4.8-3.81-8.04-4.39-2.39-.45-7.19-.68-14.4-.68h-9.67Z"/>
    <path class="cls-3" d="m363.08,145.7V63.38h-29.4v-16.76h78.74v16.76h-29.33v82.32h-20.01Z"/>
    <path class="cls-3" d="m425.2,46.62h20.01v53.67c0,8.52.25,14.04.74,16.56.86,4.06,2.89,7.31,6.12,9.77,3.22,2.46,7.63,3.68,13.21,3.68s9.96-1.16,12.84-3.48c2.88-2.32,4.62-5.17,5.2-8.55.59-3.38.88-8.99.88-16.83v-54.81h20.01v52.04c0,11.9-.54,20.3-1.62,25.21-1.08,4.91-3.08,9.06-5.98,12.44-2.91,3.38-6.79,6.07-11.66,8.08-4.87,2-11.22,3.01-19.06,3.01-9.46,0-16.64-1.09-21.53-3.28-4.89-2.19-8.75-5.02-11.59-8.52-2.84-3.49-4.71-7.15-5.61-10.98-1.31-5.68-1.96-14.06-1.96-25.14v-52.85Z"/>
    <path class="cls-3" d="m525.5,145.7V46.62h19.47l40.55,66.17V46.62h18.59v99.08h-20.07l-39.94-64.61v64.61h-18.59Z"/>
    <path class="cls-3" d="m625.26,145.7V46.62h73.47v16.76h-53.46v21.97h49.75v16.69h-49.75v26.97h55.35v16.69h-75.36Z"/>
    <path class="cls-3" d="m755.77,145.7V46.62h29.94l17.98,67.59,17.78-67.59h30.01v99.08h-18.59v-78l-19.67,78h-19.26l-19.6-78v78h-18.59Z"/>
    <path class="cls-3" d="m870.74,145.7V46.62h20.01v99.08h-20.01Z"/>
    <path class="cls-3" d="m899.73,145.7l33.86-51.71-30.68-47.38h23.38l19.87,31.83,19.47-31.83h23.18l-30.82,48.12,33.86,50.96h-24.13l-21.97-34.27-22.03,34.27h-23.99Z"/>
    <path class="cls-3" d="m1002.13,145.7V46.62h73.47v16.76h-53.46v21.97h49.75v16.69h-49.75v26.97h55.36v16.69h-75.36Z"/>
    <path class="cls-3" d="m1094.52,145.7V46.62h42.11c10.59,0,18.28.89,23.08,2.67s8.64,4.95,11.52,9.5c2.88,4.55,4.33,9.76,4.33,15.61,0,7.43-2.19,13.58-6.56,18.42-4.37,4.84-10.91,7.9-19.6,9.16,4.33,2.52,7.9,5.29,10.71,8.31,2.82,3.02,6.61,8.38,11.39,16.09l12.1,19.33h-23.93l-14.46-21.56c-5.14-7.71-8.65-12.56-10.54-14.57-1.89-2-3.9-3.38-6.02-4.12-2.12-.74-5.47-1.12-10.07-1.12h-4.05v41.36h-20.01Zm20.01-57.18h14.8c9.6,0,15.59-.41,17.98-1.22,2.39-.81,4.26-2.21,5.61-4.19,1.35-1.98,2.03-4.46,2.03-7.43,0-3.33-.89-6.03-2.67-8.08-1.78-2.05-4.29-3.35-7.54-3.89-1.62-.22-6.49-.34-14.6-.34h-15.61v25.14Z"/>
  </g>
</svg>