<?xml version="1.0" encoding="UTF-8"?>
<svg id="supply_reel_full" xmlns="http://www.w3.org/2000/svg" viewBox="0 0 964.93 964.93">
  <defs>
    <style>
      .cls-1 {
        fill: #fff;
      }

      .cls-2 {
        fill: none;
        stroke: #010101;
        stroke-miterlimit: 10;
        stroke-width: .75px;
      }

      .cls-3 {
        fill: #5e4a43;
      }

      .cls-4 {
        fill: #f3cf22;
      }
    </style>
  </defs>
  <circle id="supply_reel" class="cls-3" cx="482.47" cy="482.47" r="482.47"/>
  <path id="supply_reeldetail" class="cls-2" d="m485.22,945.54c-255.75,0-463.07-207.32-463.07-463.07S229.47,19.4,485.22,19.4s463.07,207.32,463.07,463.07-207.32,463.07-463.07,463.07Zm463.07-463.07c0-255.75-207.32-463.07-463.07-463.07S22.15,226.72,22.15,482.47s207.32,463.07,463.07,463.07,463.07-207.32,463.07-463.07Zm-12.73,0c0-250.24-202.86-453.09-453.09-453.09S29.37,232.23,29.37,482.47s202.86,453.09,453.09,453.09,453.09-202.86,453.09-453.09Zm-5.14,0c0-247.4-200.55-447.95-447.95-447.95S34.51,235.07,34.51,482.47s200.55,447.95,447.95,447.95,447.95-200.55,447.95-447.95Zm-10.62-1.99c0-241.53-195.8-437.34-437.34-437.34S45.13,238.95,45.13,480.48s195.8,437.34,437.34,437.34,437.34-195.8,437.34-437.34Zm-7.93,0c0-237.16-192.25-429.41-429.41-429.41S53.06,243.32,53.06,480.48s192.25,429.41,429.41,429.41,429.41-192.25,429.41-429.41Zm-7.93,0c0-232.78-188.7-421.48-421.48-421.48S60.98,247.7,60.98,480.48s188.7,421.48,421.48,421.48,421.48-188.7,421.48-421.48Zm-7.93,0c0-228.4-185.16-413.56-413.56-413.56S68.91,252.08,68.91,480.48s185.16,413.56,413.56,413.56,413.56-185.16,413.56-413.56Zm60.56,0C956.58,218.64,744.31,6.37,482.47,6.37S8.35,218.64,8.35,480.48s212.27,474.11,474.11,474.11,474.11-212.27,474.11-474.11Zm-68.48,0c0-224.02-181.61-405.63-405.63-405.63S76.84,256.46,76.84,480.48s181.61,405.63,405.63,405.63,405.63-181.61,405.63-405.63Zm-4.95,1.99c0-221.29-179.39-400.68-400.68-400.68S81.79,261.18,81.79,482.47s179.39,400.68,400.68,400.68,400.68-179.39,400.68-400.68Zm-7.93-1.99c0-216.91-175.84-392.75-392.75-392.75S89.72,263.57,89.72,480.48s175.84,392.75,392.75,392.75,392.75-175.84,392.75-392.75Zm-7.93,0c0-212.53-172.29-384.82-384.82-384.82S97.64,267.95,97.64,480.48s172.29,384.82,384.82,384.82,384.82-172.29,384.82-384.82Zm-10.24,0c0-208.7-169.19-377.89-377.89-377.89S101.27,271.78,101.27,480.48s169.19,377.89,377.89,377.89,377.89-169.19,377.89-377.89Zm-6.94,0c0-204.87-166.08-370.95-370.95-370.95S108.21,275.61,108.21,480.48s166.08,370.95,370.95,370.95,370.95-166.08,370.95-370.95Zm-4.51,0c0-202.38-164.06-366.44-366.44-366.44S112.72,278.1,112.72,480.48s164.06,366.44,366.44,366.44,366.44-164.06,366.44-366.44Zm-4.84,0c0-199.7-161.89-361.59-361.59-361.59S117.57,280.78,117.57,480.48s161.89,361.59,361.59,361.59,361.59-161.89,361.59-361.59Zm-3.96,0c0-197.51-160.12-357.63-357.63-357.63S121.53,282.97,121.53,480.48s160.12,357.63,357.63,357.63,357.63-160.12,357.63-357.63Zm-3.52,0c0-195.57-158.54-354.11-354.11-354.11S125.05,284.91,125.05,480.48s158.54,354.11,354.11,354.11,354.11-158.54,354.11-354.11Zm-3.52,0c0-193.62-156.96-350.58-350.58-350.58S128.58,286.86,128.58,480.48s156.96,350.58,350.58,350.58,350.58-156.96,350.58-350.58Zm-3.08,0c0-191.92-155.58-347.5-347.5-347.5S131.66,288.56,131.66,480.48s155.58,347.5,347.5,347.5,347.5-155.58,347.5-347.5Zm-2.86,1.99c0-190.34-154.3-344.64-344.64-344.64S134.52,292.13,134.52,482.47s154.3,344.64,344.64,344.64,344.64-154.3,344.64-344.64Zm-344.64,342c188.88,0,342-153.12,342-342s-153.12-342-342-342S137.16,293.58,137.16,482.47s153.12,342,342,342Zm346.84-342c0-191.56-155.29-346.84-346.84-346.84S132.32,290.91,132.32,482.47s155.29,346.84,346.84,346.84,346.84-155.29,346.84-346.84Zm-7.05,0c0-187.67-152.13-339.8-339.8-339.8S139.36,294.8,139.36,482.47s152.13,339.8,339.8,339.8,339.8-152.13,339.8-339.8Zm-339.8,336.72c185.96,0,336.72-150.75,336.72-336.72s-150.75-336.72-336.72-336.72S142.44,296.5,142.44,482.47s150.75,336.72,336.72,336.72Zm334.07-336.72c0-184.5-149.57-334.07-334.07-334.07S145.09,297.96,145.09,482.47s149.57,334.07,334.07,334.07,334.07-149.57,334.07-334.07Zm-2.64,0c0-183.04-148.39-331.43-331.43-331.43S147.73,299.42,147.73,482.47s148.39,331.43,331.43,331.43,331.43-148.39,331.43-331.43Zm45.78,0c0-208.33-168.88-377.21-377.21-377.21S101.95,274.14,101.95,482.47s168.88,377.21,377.21,377.21,377.21-168.88,377.21-377.21Zm11.68-1.99c0-214.78-174.11-388.9-388.9-388.9S90.27,265.7,90.27,480.48s174.11,388.9,388.9,388.9,388.9-174.11,388.9-388.9Zm-62.53,0c0-180.25-146.12-326.36-326.36-326.36S152.8,300.24,152.8,480.48s146.12,326.36,326.36,326.36,326.36-146.12,326.36-326.36Zm-3.96,0c0-178.06-144.34-322.4-322.4-322.4S156.76,302.42,156.76,480.48s144.34,322.4,322.4,322.4,322.4-144.34,322.4-322.4Zm-3.52,0c0-176.11-142.77-318.88-318.88-318.88S160.28,304.37,160.28,480.48s142.77,318.88,318.88,318.88,318.88-142.77,318.88-318.88Zm-3.08,0c0-174.41-141.39-315.79-315.79-315.79S163.37,306.07,163.37,480.48s141.39,315.79,315.79,315.79,315.79-141.39,315.79-315.79Zm-4.08,0c0-172.16-139.56-311.72-311.72-311.72S167.44,308.32,167.44,480.48s139.56,311.72,311.72,311.72,311.72-139.56,311.72-311.72Zm-3.41,0c0-170.27-138.03-308.31-308.31-308.31S170.85,310.21,170.85,480.48s138.03,308.31,308.31,308.31,308.31-138.03,308.31-308.31Zm-3.08,0c0-168.57-136.65-305.23-305.23-305.23S173.93,311.91,173.93,480.48s136.65,305.23,305.23,305.23,305.23-136.65,305.23-305.23Zm-2.46,0c0-167.22-135.56-302.77-302.77-302.77S176.39,313.27,176.39,480.48s135.56,302.77,302.77,302.77,302.77-135.56,302.77-302.77Zm-2.83,0c0-165.65-134.29-299.94-299.94-299.94S179.22,314.83,179.22,480.48s134.29,299.94,299.94,299.94,299.94-134.29,299.94-299.94Zm-3.96,0c0-163.46-132.51-295.98-295.98-295.98S183.18,317.02,183.18,480.48s132.51,295.98,295.98,295.98,295.98-132.51,295.98-295.98Zm-2.64,0c0-162-131.33-293.34-293.34-293.34S185.82,318.48,185.82,480.48s131.33,293.34,293.34,293.34,293.34-131.33,293.34-293.34Zm-4.45-1.81c0-159.54-129.34-288.88-288.88-288.88S190.28,319.12,190.28,478.67s129.34,288.88,288.88,288.88,288.88-129.34,288.88-288.88Zm-288.88,289.86c159.09,0,288.05-128.96,288.05-288.05s-128.96-288.05-288.05-288.05S191.11,321.39,191.11,480.48s128.96,288.05,288.05,288.05Zm282.72-289.86c0-156.14-126.58-282.72-282.72-282.72s-282.72,126.58-282.72,282.72,126.58,282.72,282.72,282.72,282.72-126.58,282.72-282.72Zm-2.2,0c0-154.92-125.59-280.51-280.51-280.51s-280.51,125.59-280.51,280.51,125.59,280.51,280.51,280.51,280.51-125.59,280.51-280.51Zm-280.51,278.31c153.71,0,278.31-124.6,278.31-278.31s-124.6-278.31-278.31-278.31-278.31,124.6-278.31,278.31,124.6,278.31,278.31,278.31Zm0-2.2c152.49,0,276.11-123.62,276.11-276.11s-123.62-276.11-276.11-276.11-276.11,123.62-276.11,276.11,123.62,276.11,276.11,276.11Zm0-2.2c151.28,0,273.91-122.63,273.91-273.91s-122.63-273.91-273.91-273.91-273.91,122.63-273.91,273.91,122.63,273.91,273.91,273.91Zm271.71-273.91c0-150.06-121.65-271.71-271.71-271.71s-271.71,121.65-271.71,271.71,121.65,271.71,271.71,271.71,271.71-121.65,271.71-271.71Zm-271.71,269.5c148.84,0,269.5-120.66,269.5-269.5s-120.66-269.5-269.5-269.5-269.5,120.66-269.5,269.5,120.66,269.5,269.5,269.5Zm0-2.64c147.38,0,266.86-119.48,266.86-266.86s-119.48-266.86-266.86-266.86-266.86,119.48-266.86,266.86,119.48,266.86,266.86,266.86Zm0-2.2c146.17,0,264.66-118.49,264.66-264.66s-118.49-264.66-264.66-264.66-264.66,118.49-264.66,264.66,118.49,264.66,264.66,264.66Zm0-2.64c144.71,0,262.02-117.31,262.02-262.02s-117.31-262.02-262.02-262.02-262.02,117.31-262.02,262.02,117.31,262.02,262.02,262.02Zm0-3.08c143.01,0,258.94-115.93,258.94-258.94s-115.93-258.94-258.94-258.94-258.94,115.93-258.94,258.94,115.93,258.94,258.94,258.94Zm0-2.75c141.49,0,256.18-114.7,256.18-256.18s-114.7-256.18-256.18-256.18-256.18,114.7-256.18,256.18,114.7,256.18,256.18,256.18Zm0-3.96c139.3,0,252.22-112.92,252.22-252.22s-112.92-252.22-252.22-252.22-252.22,112.92-252.22,252.22,112.92,252.22,252.22,252.22Zm0-4.29c136.93,0,247.93-111,247.93-247.93s-111-247.93-247.93-247.93-247.93,111-247.93,247.93,111,247.93,247.93,247.93Zm0-2.97c135.28,0,244.95-109.67,244.95-244.95s-109.67-244.95-244.95-244.95-244.95,109.67-244.95,244.95,109.67,244.95,244.95,244.95Zm0,1.31c135.01,0,244.45-109.45,244.45-244.45s-109.45-244.45-244.45-244.45-244.45,109.45-244.45,244.45,109.45,244.45,244.45,244.45Zm242.8-244.45c0-134.1-108.71-242.8-242.8-242.8s-242.8,108.71-242.8,242.8,108.71,242.8,242.8,242.8,242.8-108.71,242.8-242.8Zm-242.8,240.82c133,0,240.82-107.82,240.82-240.82s-107.82-240.82-240.82-240.82-240.82,107.82-240.82,240.82,107.82,240.82,240.82,240.82Zm237.19-240.82c0-131-106.19-237.19-237.19-237.19s-237.19,106.19-237.19,237.19,106.19,237.19,237.19,237.19,237.19-106.19,237.19-237.19Zm-237.19,233.89c129.17,0,233.89-104.71,233.89-233.89s-104.71-233.89-233.89-233.89-233.89,104.71-233.89,233.89,104.71,233.89,233.89,233.89Zm0-2.64c127.71,0,231.24-103.53,231.24-231.24s-103.53-231.24-231.24-231.24-231.24,103.53-231.24,231.24,103.53,231.24,231.24,231.24Zm228.93-231.24c0-126.44-102.5-228.93-228.93-228.93s-228.93,102.5-228.93,228.93,102.5,228.93,228.93,228.93,228.93-102.5,228.93-228.93Zm-228.93,226.29c124.98,0,226.29-101.31,226.29-226.29s-101.31-226.29-226.29-226.29-226.29,101.31-226.29,226.29,101.31,226.29,226.29,226.29Zm0-2.97c123.33,0,223.32-99.98,223.32-223.32s-99.98-223.32-223.32-223.32-223.32,99.98-223.32,223.32,99.98,223.32,223.32,223.32Zm0-1.65c122.42,0,221.67-99.24,221.67-221.67s-99.24-221.67-221.67-221.67-221.67,99.24-221.67,221.67,99.24,221.67,221.67,221.67Zm0-1.65c121.51,0,220.01-98.5,220.01-220.01s-98.5-220.01-220.01-220.01-220.01,98.5-220.01,220.01,98.5,220.01,220.01,220.01Zm0-2.7c120.02,0,217.32-97.3,217.32-217.32s-97.3-217.32-217.32-217.32-217.32,97.3-217.32,217.32,97.3,217.32,217.32,217.32Zm386.69-217.32c0-213.56-173.13-386.69-386.69-386.69S92.47,266.92,92.47,480.48s173.13,386.69,386.69,386.69,386.69-173.13,386.69-386.69Zm-386.69,466.35c258.56,0,468.16-209.6,468.16-468.16S737.72,10.51,479.16,10.51,11,220.11,11,478.67s209.6,468.16,468.16,468.16Zm0-5.72c255.4,0,462.44-207.04,462.44-462.44S734.56,16.23,479.16,16.23,16.72,223.27,16.72,478.67s207.04,462.44,462.44,462.44Zm0,12.77c262.45,0,475.21-212.76,475.21-475.21S741.61,3.46,479.16,3.46,3.95,216.22,3.95,478.67s212.76,475.21,475.21,475.21Zm0-53.28c233.02,0,421.92-188.9,421.92-421.92S712.18,56.74,479.16,56.74,57.24,245.65,57.24,478.67s188.9,421.92,421.92,421.92Zm0,17.17c242.51,0,439.1-196.59,439.1-439.1S721.67,39.57,479.16,39.57,40.06,236.16,40.06,478.67s196.59,439.1,439.1,439.1Zm0-9.25c237.4,0,429.85-192.45,429.85-429.85S716.56,48.82,479.16,48.82,49.31,241.27,49.31,478.67s192.45,429.85,429.85,429.85ZM65.16,478.67c0,228.64,185.35,414,414,414s414-185.35,414-414S707.8,64.67,479.16,64.67,65.16,250.02,65.16,478.67Zm20.26,0c0,217.46,176.28,393.74,393.74,393.74s393.74-176.28,393.74-393.74S696.62,84.93,479.16,84.93,85.42,261.21,85.42,478.67Zm393.74,405.63c224.02,0,405.63-181.61,405.63-405.63S703.18,73.04,479.16,73.04,73.53,254.64,73.53,478.67s181.61,405.63,405.63,405.63Zm0,47.56c250.29,0,453.19-202.9,453.19-453.19S729.45,25.48,479.16,25.48,25.97,228.38,25.97,478.67s202.9,453.19,453.19,453.19Z"/>
  <circle id="reel_outside" class="cls-4" cx="482.47" cy="482.47" r="219.3"/>
  <path id="reel_background" class="cls-1" d="m604.67,480.49c0,69.31-56.19,125.5-125.5,125.5s-125.51-56.19-125.51-125.5,56.19-125.51,125.51-125.51,125.5,56.19,125.5,125.51Z"/>
  <path id="reel_center" class="cls-4" d="m457.93,342.12l32.7-1.87-5.73,63.48-20.39,1.15m-49.25,30.85l-52.98-29.81-15.98,34.13,58.19,16.86,10.76-21.18Zm-43.41,137.12l46.78-38.9-10.73-16.44-53.6,28.01,17.55,27.33Zm131.49,50.85l-11.17-62.89-17.86,1.04s-5.5,61.66-5.72,62.76l34.75-.91Zm49.6-111.87l-8.54,16,51.49,40.86,18.73-33.18-61.68-23.67Zm55.69-95.56l-16.85-25.24-52.24,40.4,11.44,17.84,57.65-33Z"/>
</svg>